<?xml version="1.0" encoding="utf-8"?>
<!-- Generator: Adobe Illustrator 27.5.0, SVG Export Plug-In . SVG Version: 6.00 Build 0)  -->
<svg version="1.1" xmlns="http://www.w3.org/2000/svg" xmlns:xlink="http://www.w3.org/1999/xlink" x="0px" y="0px"
	 viewBox="0 0 500 500" style="enable-background:new 0 0 500 500;" xml:space="preserve">
<g id="BACKGROUND">
	<rect style="fill:#FFFFFF;" width="500" height="500"/>
</g>
<g id="OBJECTS">
	<ellipse style="fill:#A7DDEA;" cx="256.858" cy="448.883" rx="195.988" ry="5.449"/>
	<path style="fill:#BDF1FF;" d="M433.74,200.296l-28.686,129.007c-11.263,50.653-58.119,83.728-104.124,73.499l-162.917-36.227
		c-46.005-10.23-74.425-60.043-63.161-110.696l28.686-129.007c3.422-15.388,10.126-29.153,19.098-40.574
		c8.223-10.476,18.351-18.982,29.593-24.955c16.855-8.964,36.216-12.247,55.43-7.974l162.917,36.227
		c16.61,3.693,30.926,12.547,41.91,24.728c4.324,4.797,8.13,10.11,11.355,15.828C435.134,150.154,439.339,175.119,433.74,200.296z"
		/>
	<path style="fill:#D9FAFF;" d="M188.57,135.83c-7.97,35.841-43.488,58.437-79.329,50.467c-6.255-1.391-12.108-3.621-17.461-6.545
		l11.759-52.881c3.422-15.388,10.126-29.153,19.098-40.574c8.223-10.476,18.351-18.982,29.593-24.955
		C179.635,74.341,195.432,104.967,188.57,135.83z"/>
	<path style="fill:#D9FAFF;" d="M433.74,200.296l-13.373,60.141c-1.019-0.183-2.038-0.387-3.056-0.614
		c-40.518-9.01-66.063-49.164-57.054-89.682c6.152-27.667,26.83-48.352,52.228-55.819c4.324,4.797,8.13,10.11,11.355,15.828
		C435.134,150.154,439.339,175.119,433.74,200.296z"/>
	
		<ellipse transform="matrix(0.3453 -0.9385 0.9385 0.3453 -174.6584 318.0689)" style="fill:#D9FAFF;" cx="140.63" cy="284.211" rx="37.067" ry="37.067"/>
	
		<ellipse transform="matrix(0.9933 -0.1156 0.1156 0.9933 -25.6909 24.8667)" style="fill:#D9FAFF;" cx="201.482" cy="233.864" rx="20.193" ry="20.193"/>
	
		<ellipse transform="matrix(0.9873 -0.1591 0.1591 0.9873 -40.9604 15.0019)" style="fill:#D9FAFF;" cx="73.204" cy="263.291" rx="20.193" ry="20.193"/>
	
		<ellipse transform="matrix(0.7071 -0.7071 0.7071 0.7071 -108.3032 378.9853)" style="fill:#D9FAFF;" cx="403.324" cy="320.226" rx="26.714" ry="26.714"/>
	<circle style="fill:#D9FAFF;" cx="365.617" cy="296.268" r="10.362"/>
	<path style="fill:#D9FAFF;" d="M212.071,107.349c-0.87,3.914-4.749,6.381-8.663,5.511c-3.914-0.87-6.381-4.749-5.511-8.663
		s4.749-6.381,8.663-5.511S212.942,103.435,212.071,107.349z"/>
	<path style="fill:#D9FAFF;" d="M367.874,325.159c-0.621,2.793-3.389,4.554-6.182,3.933c-2.793-0.621-4.554-3.389-3.933-6.182
		c0.621-2.793,3.389-4.554,6.182-3.933C366.734,319.598,368.495,322.366,367.874,325.159z"/>
	<circle style="fill:#D9FAFF;" cx="191.327" cy="268.128" r="5.181"/>
	<g>
		<g>
			<path style="fill:#020B2A;" d="M233.258,166.142c0.934-0.821,1.443-2.022,1.989-3.113c1.209-2.417,2.312-4.885,3.302-7.4
				c0.502-1.275,0.976-2.561,1.421-3.857c0.426-1.24,0.762-2.518,1.216-3.747c0.219-0.593,0.538-1.092,0.938-1.579
				c0.024-0.029,0.047-0.058,0.071-0.087c-0.005-0.056,0.002-0.114,0.036-0.17c0.481-0.779,0.899-1.572,1.199-2.439
				c0.122-0.351,0.225-0.708,0.322-1.066c0.063-0.497,0.098-0.995,0.117-1.479c0.208-5.068-1.752-9.955-1.597-15.015
				c-0.871-0.415-2.031,0.167-2.791,0.633c-0.637,0.39-1.261,0.783-1.969,1.033c-0.691,0.245-1.43,0.358-2.162,0.374
				c-2.736,0.063-5.325-1.109-7.912-1.827c-1.425-0.395-2.873-0.707-4.333-0.939c-1.332-0.212-2.88-0.544-4.186-0.056
				c-0.482,0.18-0.942,0.501-1.213,0.946c-0.301,0.493-0.31,1.081-0.234,1.638c0.17,1.239,0.605,2.417,0.169,3.657
				c-0.237,0.675-0.58,1.319-0.883,1.966c-0.322,0.689-0.645,1.378-0.97,2.065c-0.318,0.67-0.636,1.34-0.954,2.01
				c-0.333,0.702-0.64,1.425-1.102,2.052c-0.086,0.117-0.23,0.127-0.327,0.067c-0.133,0.042-0.284,0.032-0.417-0.082
				c-0.446-0.378-0.752-0.876-1.088-1.347c-0.287-0.402-0.664-0.827-1.171-0.933c-0.505-0.106-0.839,0.302-1.134,0.647
				c-0.333,0.391-0.666,0.785-0.929,1.228c-0.577,0.969-0.576,2.076-0.443,3.164c0.142,1.162,0.372,2.318,0.642,3.456
				c0.133,0.562,0.276,1.123,0.442,1.676c0.106,0.354,0.246,0.702,0.489,0.981c0.11-0.254,0.522-0.215,0.548,0.111
				c0.054,0.701,0.099,1.403,0.156,2.104c0.116,1.413,0.232,2.827,0.435,4.231c0.094,0.649,0.208,1.3,0.431,1.919
				c0.208,0.576,0.533,1.109,0.914,1.587c0.739,0.928,1.646,1.739,2.536,2.519c0.906,0.794,1.852,1.542,2.843,2.228
				c1.932,1.339,4.027,2.459,6.261,3.203c2.073,0.69,4.397,1.2,6.584,0.832C231.495,167.169,232.491,166.817,233.258,166.142z"/>
			<path style="fill:#020B2A;" d="M205.943,145.059c0.394,1.327,0.913,2.606,1.364,3.913c0.361,1.047,0.617,2.115,0.521,3.203
				c0.23-0.732,0.446-1.47,0.598-2.222c0.14-0.689,0.198-1.388,0.199-2.088c-0.01-0.03-0.02-0.061-0.029-0.091
				c-0.217-0.71-0.403-1.432-0.57-2.156c-0.294-1.269-0.573-2.58-0.646-3.883c-0.035-0.627,0.004-1.273,0.187-1.876
				c0.175-0.576,0.483-1.096,0.842-1.575c0.349-0.466,0.715-0.987,1.182-1.342c0.466-0.354,1.054-0.431,1.6-0.222
				c0.557,0.213,0.979,0.618,1.334,1.086c0.309,0.407,0.579,0.837,0.95,1.188c0.22-0.644,0.529-1.263,0.807-1.881
				c0.366-0.813,0.732-1.626,1.099-2.439c0.351-0.779,0.709-1.554,1.065-2.331c0.324-0.708,0.605-1.369,0.547-2.162
				c-0.089-1.23-0.674-2.464-0.276-3.698c0.398-1.232,1.614-1.934,2.839-2.104c0.739-0.103,1.478-0.048,2.216,0.04
				c0.772,0.092,1.541,0.205,2.307,0.341c1.491,0.264,2.969,0.611,4.422,1.039c1.356,0.4,2.692,0.871,4.069,1.196
				c1.291,0.305,2.66,0.491,3.972,0.207c0.658-0.143,1.256-0.405,1.833-0.749c0.593-0.353,1.161-0.741,1.801-1.007
				c0.714-0.296,1.595-0.383,2.33-0.112c0.266-0.152,0.676-0.041,0.66,0.353c0,0.011,0,0.023-0.001,0.034
				c0.079,0.069,0.159,0.137,0.229,0.221c0.25,0.301,0.033,0.685-0.246,0.761c0.001,0.319,0.009,0.639,0.024,0.958
				c0.17,3.614,1.194,7.197,1.509,10.801c0.177-0.753,0.381-1.499,0.654-2.224c0.313-0.83,0.725-1.603,1.211-2.344
				c0.529-0.806,1.068-1.598,1.491-2.467c0.794-1.632,1.25-3.495,0.99-5.312c-0.234-1.641-1.021-3.127-2.093-4.374
				c-0.028-0.018-0.058-0.029-0.085-0.055c-0.399-0.394-0.81-0.776-1.233-1.144c-3.51-3.049-7.818-5.073-12.308-6.2
				c-2.245-0.563-4.54-0.907-6.85-1.046c-2.483-0.149-5.01-0.101-7.473,0.265c-2.511,0.374-4.998,1.102-7.166,2.451
				c-1.882,1.171-3.509,2.789-4.507,4.783c-0.588,1.175-0.881,2.462-1.15,3.74c-0.294,1.395-0.601,2.796-0.695,4.222
				c-0.092,1.386,0.144,2.763,0.073,4.146c-0.036,0.708-0.183,1.381-0.416,2.049c-0.224,0.643-0.465,1.276-0.514,1.962
				c-0.098,1.371,0.158,2.803,0.392,4.151C205.24,142.415,205.553,143.748,205.943,145.059z"/>
			<path style="fill:#020B2A;" d="M209.568,149.212c-0.087-0.045-0.165-0.099-0.237-0.158c-0.091,1.632-0.67,3.24-1.145,4.783
				c-0.579,1.879-1.171,3.755-1.761,5.63c-0.295,0.938-0.589,1.876-0.884,2.814c-0.145,0.46-0.289,0.92-0.434,1.38
				c-0.131,0.415-0.322,0.884-0.228,1.327c0.081,0.378,0.344,0.703,0.579,0.999c0.235,0.297,0.479,0.586,0.732,0.868
				c0.512,0.57,1.058,1.109,1.633,1.615c2.306,2.03,5.069,3.504,7.936,4.576c1.47,0.549,2.976,1,4.499,1.375
				c1.645,0.404,3.324,0.764,5.01,0.938c0.951,0.098,1.913,0.127,2.866,0.033c0.243-0.024,0.486-0.055,0.727-0.102
				c0.116-0.023,0.324-0.043,0.405-0.141c0.101-0.123,0.037-0.404,0.028-0.545c-0.015-0.221-0.031-0.441-0.046-0.662
				c-0.13-1.869-0.259-3.738-0.389-5.606c-0.039-0.001-0.078,0-0.118-0.001c-2.383-0.063-4.753-0.752-6.931-1.687
				c-2.256-0.969-4.342-2.291-6.266-3.811c-0.974-0.77-1.906-1.596-2.791-2.467c-0.905-0.89-1.754-1.867-2.2-3.074
				c-0.234-0.633-0.348-1.303-0.439-1.97c-0.099-0.728-0.183-1.459-0.249-2.19c-0.119-1.297-0.167-2.598-0.117-3.899
				C209.688,149.247,209.627,149.243,209.568,149.212z"/>
			<path style="fill:#020B2A;" d="M102.257,297.668c0.768-0.477,1.515-0.986,2.244-1.521c1.471-1.081,2.858-2.271,4.208-3.5
				c0.673-0.613,1.335-1.237,1.992-1.866c0.646-0.619,1.266-1.332,2.02-1.822c0.29-0.189,0.685,0.192,0.484,0.484
				c-0.326,0.477-0.751,0.873-1.164,1.275c-0.403,0.392-0.808,0.782-1.215,1.17c-0.802,0.764-1.613,1.519-2.446,2.25
				c-1.5,1.317-3.063,2.568-4.725,3.676c-0.451,0.301-0.911,0.589-1.378,0.867c-0.213,0.586-0.076,1.264,0.351,1.727
				c0.535,0.58,1.349,0.764,2.111,0.754c1.629-0.021,3.133-0.812,4.481-1.654c1.434-0.895,2.823-1.869,4.184-2.871
				c1.399-1.031,2.762-2.111,4.088-3.235c0.651-0.552,1.298-1.111,1.925-1.691c0.301-0.278,0.594-0.565,0.86-0.877
				c0.243-0.285,0.435-0.602,0.729-0.837c0.192-0.154,0.592-0.084,0.556,0.23c-0.06,0.531-0.369,0.917-0.715,1.31
				c-0.312,0.356-0.657,0.68-1.008,0.997c-0.796,0.719-1.61,1.419-2.436,2.103c-1.025,0.848-2.078,1.66-3.144,2.455
				c0.26,0.476,0.854,0.732,1.372,0.757c0.757,0.037,1.506-0.21,2.227-0.41c1.145-0.318,2.291-0.687,3.306-1.32
				c1.087-0.678,1.839-1.669,2.461-2.772c0.665-1.178,1.251-2.406,1.803-3.641c0.289-0.646,0.562-1.298,0.829-1.953
				c0.267-0.655,0.497-1.328,0.836-1.95c0.011-0.02,0.026-0.032,0.039-0.048c0.733-2.008,1.594-3.978,2.549-5.881
				c1.157-2.306,2.513-4.503,4.141-6.507c1.599-1.969,3.412-3.748,5.193-5.549c1.75-1.77,3.564-3.569,4.985-5.624
				c0.334-0.483,0.66-1.043,0.585-1.653c-0.042-0.344-0.201-0.663-0.396-0.956c-0.146,0.062-0.319,0.036-0.398-0.146
				c-0.115-0.265-0.233-0.524-0.357-0.779c-0.772-0.861-1.601-1.672-2.351-2.552c-0.12-0.141-0.126-0.301-0.071-0.432
				c-0.888-0.751-1.884-1.428-2.938-1.899c-1.399-0.626-2.89-0.55-4.367-0.287c-1.094,0.194-2.679,0.637-3.405-0.533
				c-0.091-0.146-0.151-0.304-0.188-0.466c-0.205,0.116-0.325,0.365-0.378,0.605c-0.095,0.438-0.072,0.89-0.229,1.316
				c-0.296,0.8-0.97,1.389-1.546,1.99c-2.319,2.419-4.541,4.934-6.668,7.524c-1.061,1.293-2.096,2.607-3.103,3.943
				c-0.273,0.362-0.544,0.726-0.813,1.092c-0.204,0.278-0.399,0.667-0.706,0.846c-0.307,0.18-0.707,0.065-0.844-0.239
				c-0.291,0.094-0.581,0.193-0.864,0.315c-0.647,0.278-1.27,0.608-1.861,0.99c-1.244,0.804-2.338,1.814-3.445,2.791
				c-4.24,3.745-8.49,7.478-12.739,11.213c-0.468,0.411-0.966,0.806-1.379,1.275c-0.309,0.349-0.629,0.832-0.493,1.321
				c0.119,0.425,0.531,0.688,0.938,0.793c0.556,0.145,1.151-0.029,1.667-0.242c1.156-0.478,2.263-1.158,3.309-1.838
				c0.531-0.345,1.05-0.708,1.557-1.088c0.01-0.007,0.019-0.015,0.029-0.023c0.005-0.045,0.023-0.089,0.056-0.121
				c0.292-0.281,0.651-0.482,1-0.691c0.14-0.105,0.275-0.214,0.421-0.311c0.051-0.034,0.1-0.049,0.149-0.056
				c0.281-0.188,0.558-0.381,0.826-0.586c0.39-0.299,0.761-0.624,1.115-0.965c0.173-0.168,0.343-0.34,0.508-0.516
				c0.173-0.184,0.315-0.389,0.581-0.426c0.183-0.025,0.358,0.071,0.362,0.276c0.006,0.305-0.196,0.492-0.391,0.702
				c-0.173,0.186-0.352,0.367-0.536,0.541c-0.375,0.355-0.771,0.685-1.181,0.997c-0.371,0.282-0.758,0.537-1.159,0.772
				c-0.48,0.49-1.044,0.904-1.593,1.313c-0.615,0.458-1.249,0.891-1.899,1.297c-0.436,0.273-0.882,0.529-1.332,0.777
				c-0.007,0.026-0.02,0.052-0.039,0.079c-0.335,0.445-0.777,0.803-1.2,1.164c-0.422,0.36-0.858,0.706-1.296,1.047
				c-0.845,0.655-1.76,1.245-2.568,1.944c-0.478,0.413-1.201,1.118-0.887,1.823c0.293,0.659,1.181,0.702,1.775,0.541
				c0.875-0.237,1.692-0.768,2.478-1.207c0.813-0.454,1.614-0.928,2.403-1.423c1.56-0.978,3.075-2.031,4.529-3.161
				c1.473-1.145,2.825-2.433,4.292-3.581c0.339-0.265,0.769,0.142,0.479,0.478c-0.751,0.87-1.621,1.621-2.498,2.36
				c-0.854,0.72-1.73,1.414-2.625,2.083c-1.555,1.163-3.172,2.243-4.841,3.237c-0.022,0.054-0.057,0.103-0.119,0.135
				c-0.81,0.42-1.552,0.988-2.143,1.683c-0.573,0.673-1.123,1.594-1.036,2.512c0.069,0.724,0.646,1.235,1.311,1.439
				c0.799,0.245,1.633,0.057,2.385-0.259C100.701,298.625,101.49,298.143,102.257,297.668z"/>
			<path style="fill:#020B2A;" d="M131.886,252.851c0.606,0.016,1.202-0.156,1.796-0.256c0.726-0.123,1.461-0.214,2.198-0.192
				c1.419,0.042,2.688,0.569,3.873,1.323c1.045,0.665,2.035,1.439,2.866,2.361c0.48,0.533,0.95,1.145,1.303,1.805
				c0.235,0.251,0.463,0.508,0.676,0.777c0.187-0.173,0.375-0.345,0.569-0.51c2.575-2.191,5.071-4.479,7.424-6.907
				c2.347-2.422,4.56-4.971,6.626-7.637c1.992-2.569,3.89-5.226,6.153-7.57c1.16-1.201,2.418-2.286,3.773-3.261
				c1.425-1.025,2.87-1.997,4.178-3.174c1.356-1.22,2.639-2.523,3.942-3.799c1.206-1.18,2.413-2.359,3.619-3.539
				c-0.27-0.214-0.536-0.432-0.801-0.644c-1.461-1.161-2.945-2.295-4.468-3.373c-3.04-2.152-6.256-4.119-9.715-5.521
				c-0.851-0.345-1.715-0.657-2.592-0.929c-0.781-0.243-1.583-0.428-2.352-0.709c-0.422-0.155-0.859-0.359-1.258-0.611
				c-0.008,0.046-0.018,0.092-0.038,0.136c-1.306,3.047-3.16,5.806-5.182,8.418c-3.589,4.635-7.761,8.858-10.719,13.956
				c-0.84,1.448-1.497,2.999-2.386,4.419c-0.944,1.507-2.057,2.916-3.106,4.35c-1.1,1.504-2.204,3.006-3.307,4.509
				c-0.947,1.291-1.879,2.606-2.914,3.831c0.008,0.046,0.009,0.092-0.001,0.135c-0.086,0.386-0.42,0.581-0.667,0.868
				c-0.202,0.235-0.372,0.512-0.415,0.824C130.88,252.543,131.331,252.836,131.886,252.851z"/>
			<path style="fill:#020B2A;" d="M138.689,364.213c-2.477-0.964-4.421-3.447-3.869-6.204c0.279-1.391,1.09-2.672,1.948-3.778
				c0.846-1.091,1.84-2.055,2.893-2.944c2.278-1.922,4.767-3.621,7.32-5.154c1.282-0.77,2.59-1.561,3.988-2.105
				c0.96-0.374,2.031-0.586,3.038-0.39c-0.26-0.502-0.572-0.979-0.932-1.412c-1.083-1.301-2.56-2.29-4.178-2.788
				c-1.81-0.556-3.64-0.404-5.415,0.214c-2.014,0.702-3.864,1.83-5.774,2.764c-1.992,0.974-4.021,1.873-6.08,2.697
				c-4.096,1.64-8.314,2.973-12.608,3.983c-4.017,0.945-8.28,1.519-11.712,3.995c-3.02,2.178-5.069,5.435-6.655,8.743
				c-0.401,0.836-0.776,1.683-1.131,2.539c-0.399,0.962-0.843,1.946-1.006,2.982c-0.144,0.91,0.043,1.801,0.582,2.55
				c0.474,0.658,1.159,1.147,1.864,1.53c0.773,0.42,1.6,0.709,2.445,0.948c1.075,0.304,2.175,0.536,3.287,0.654
				c2.176,0.231,4.319,0.014,6.41-0.624c3.996-1.219,7.568-3.513,11.629-4.562c4.322-1.117,8.82-1.159,13.252-1.375
				c2.199-0.107,4.484-0.154,6.617-0.752c1.437-0.403,2.814-1.151,3.739-2.316C145.268,364.423,141.854,365.445,138.689,364.213z"/>
			<path style="fill:#020B2A;" d="M201.367,360.942c-0.328-0.343-0.532-0.772-0.705-1.209c-0.819-2.071-1.074-4.34-1.111-6.552
				c-0.039-2.296,0.137-4.595,0.272-6.885c0.141-2.395,0.31-4.789,0.57-7.174c0.13-1.192,0.284-2.382,0.47-3.567
				c0.165-1.057,0.342-2.116,0.641-3.143c-3.159-1.056-6.438-1.843-9.793-1.552c-1.562,0.136-3.074,0.54-4.526,1.126
				c-1.476,0.596-2.88,1.357-4.301,2.07c-3.066,1.539-6.263,2.803-9.43,4.117c-3.218,1.336-6.435,2.672-9.653,4.007
				c-3.021,1.253-6.106,2.488-9.409,2.676c-0.303,0.017-0.441-0.222-0.425-0.458c-1.173-0.178-2.355,0.224-3.428,0.749
				c-1.407,0.688-2.763,1.514-4.09,2.345c-2.347,1.469-4.665,3.069-6.734,4.916c-0.95,0.848-1.848,1.77-2.585,2.811
				c-0.734,1.037-1.465,2.27-1.521,3.571c-0.051,1.165,0.45,2.296,1.228,3.147c0.842,0.92,1.97,1.479,3.177,1.749
				c2.251,0.503,4.521-0.012,6.694-0.687c-0.113-0.118-0.107-0.357,0.098-0.431c0.434-0.156,0.876-0.283,1.323-0.4
				c1.753-0.459,3.592-0.501,5.395-0.468c1.943,0.036,3.886,0.1,5.828,0.157c3.923,0.116,7.846,0.236,11.769,0.363
				c3.923,0.128,7.846,0.256,11.769,0.384c3.817,0.125,7.637,0.312,11.456,0.355c3.031,0.034,6.176-0.147,8.965-1.412
				c-0.202,0.003-0.403,0.001-0.602-0.014C202.196,361.493,201.729,361.321,201.367,360.942z"/>
			<path style="fill:#020B2A;" d="M226.742,340.203c-3.427-1.947-6.828-4.048-10.604-5.26c-4.017-1.29-8.432-1.077-12.29-2.89
				c-0.048-0.022-0.095-0.048-0.143-0.071c-0.152,0.118-0.327,0.212-0.481,0.326c-0.011,0.008-0.023,0.017-0.034,0.026
				c-0.026,0.02-0.015,0.011,0.032-0.025c-0.017,0.003-0.043,0.034-0.055,0.044c-0.04,0.033-0.08,0.067-0.119,0.101
				c-0.074,0.066-0.147,0.133-0.217,0.204c-0.074,0.073-0.144,0.15-0.211,0.229c-0.034,0.039-0.066,0.08-0.099,0.12
				c-0.015,0.018-0.029,0.037-0.044,0.055c-0.002,0.003-0.001,0.001-0.002,0.002c-0.075,0.1-0.155,0.194-0.233,0.292
				c-0.028,0.034-0.06,0.09-0.097,0.115c-0.007,0.005-0.009,0.005-0.009,0.002c-0.002,0.002-0.001,0.002-0.003,0.005
				c-0.016,0.023-0.031,0.047-0.047,0.071c-0.022,0.035-0.05,0.063-0.081,0.086c-0.01,0.068-0.02,0.137-0.031,0.205
				c-0.363,2.295-0.662,4.594-0.865,6.909c-0.202,2.299-0.339,4.604-0.469,6.908c-0.124,2.194-0.275,4.396-0.157,6.594
				c0.058,1.072,0.183,2.139,0.419,3.186c0.118,0.525,0.263,1.044,0.439,1.553c0.143,0.416,0.292,0.862,0.566,1.213
				c0.294,0.377,0.679,0.445,1.136,0.442c0.574-0.004,1.148-0.026,1.722-0.05c1.161-0.047,2.322-0.122,3.48-0.224
				c2.295-0.202,4.578-0.513,6.843-0.931c1.143-0.211,2.281-0.449,3.413-0.714c1.074-0.251,2.16-0.501,3.2-0.871
				c0.951-0.339,1.835-0.826,2.602-1.486c0.738-0.635,1.379-1.377,1.955-2.159c1.283-1.742,2.404-3.62,3.49-5.489
				c1.044-1.797,2.01-3.634,2.943-5.49c-0.229-0.098-0.457-0.197-0.684-0.298C230.198,342.131,228.461,341.18,226.742,340.203z"/>
			<path style="fill:#020B2A;" d="M268.909,350.925c-1.759,1.926-3.475,3.919-5.584,5.477c-0.52,0.384-1.069,0.741-1.641,1.055
				c0.318-0.031,0.637-0.065,0.954-0.108c2.049-0.28,4.064-0.764,6.008-1.471c0.966-0.351,1.91-0.757,2.83-1.215
				c0.455-0.227,0.904-0.465,1.346-0.716c0.453-0.257,0.886-0.576,1.356-0.798c0.056-0.027,0.114-0.037,0.172-0.038
				c-0.097-0.274-0.193-0.548-0.292-0.821c-0.309-0.86-0.615-1.721-0.918-2.583c-0.154-0.44-0.312-0.878-0.463-1.319
				c-0.098-0.286-0.239-0.602-0.288-0.914C271.173,348.564,270.014,349.716,268.909,350.925z"/>
			<path style="fill:#020B2A;" d="M304.07,443.766c-0.986-0.767-2.16-1.296-3.331-1.711c-1.215-0.43-2.465-0.751-3.706-1.097
				c-1.244-0.347-2.475-0.737-3.688-1.184c-2.432-0.896-4.791-1.993-7.04-3.28c-2.262-1.295-4.419-2.78-6.424-4.446
				c-0.475-0.395-0.954-0.805-1.275-1.341c-0.346-0.577-0.429-1.245-0.468-1.904c-0.033-0.574-0.025-1.177-0.304-1.697
				c-0.2-0.372-0.586-0.82-1.06-0.751c-0.109,0.016-0.203-0.013-0.276-0.066c-0.714-0.019-1.404-0.354-2.035-0.669
				c-0.839-0.418-1.669-0.853-2.499-1.289c-1.657-0.87-3.316-1.745-5.038-2.482c-1.713-0.733-3.503-1.312-5.346-1.606
				c-0.902-0.144-1.815-0.204-2.728-0.185c-0.87,0.017-1.715,0.168-2.575,0.27c-0.157,0.176-0.301,0.363-0.385,0.582
				c-0.068,0.178-0.106,0.385-0.031,0.567c0.072,0.175,0.165,0.322,0.194,0.515c0.067,0.43-0.071,0.866-0.294,1.232
				c-0.22,0.361-0.535,0.648-0.812,0.964c-0.134,0.152-0.237,0.313-0.335,0.489c-0.104,0.186-0.224,0.35-0.459,0.348
				c-0.04,0-0.079-0.008-0.118-0.021c-1.327,1.584-2.412,3.34-3.278,5.23c-0.983,2.147-1.681,4.416-2.294,6.691
				c-0.305,1.134-0.605,2.272-0.866,3.417c-0.243,1.064-0.458,2.218-0.252,3.307c0.202,1.068,0.839,1.912,1.846,2.344
				c1.016,0.436,2.165,0.473,3.254,0.485c1.46,0.017,2.921-0.029,4.377-0.138c1.456-0.109,2.898-0.318,4.349-0.474
				c0.205-0.022,0.331,0.116,0.374,0.283c0.081-0.008,0.161-0.02,0.242-0.027c5.863-0.577,11.771-0.473,17.641-0.066
				c5.918,0.41,11.807,1.131,17.702,1.777c1.487,0.163,2.99,0.308,4.485,0.172c1.117-0.102,2.421-0.416,3.085-1.409
				c0.287-0.429,0.471-0.964,0.36-1.482C304.942,444.549,304.514,444.111,304.07,443.766z"/>
			<path style="fill:#020B2A;" d="M305.276,361.454c-0.293-0.184-0.59-0.363-0.889-0.538c-0.011-0.007-0.022-0.011-0.033-0.019
				c-0.25-0.146-0.501-0.29-0.755-0.43c-4.705-2.585-10.039-4-15.402-4.157c-2.682-0.079-5.372,0.151-7.996,0.714
				c-0.651,0.139-1.299,0.295-1.939,0.478c-0.636,0.182-1.275,0.404-1.813,0.799c-1,0.734-1.438,1.98-1.768,3.125
				c-0.87,3.013-1.641,6.058-2.458,9.085c-0.827,3.062-1.656,6.124-2.411,9.205c-0.758,3.094-1.433,6.208-2.146,9.313
				c-0.698,3.041-1.481,6.061-2.348,9.059c-0.853,2.947-1.798,5.868-2.837,8.755c-0.513,1.426-1.049,2.845-1.606,4.254
				c-0.567,1.435-1.2,2.842-1.826,4.253c-0.037,0.083-0.105,0.121-0.18,0.13c-0.069,0.16-0.135,0.321-0.206,0.482
				c-0.415,0.942-0.823,1.891-1.267,2.82c-0.114,0.237-0.246,0.46-0.392,0.675c0.691-0.145,1.416-0.191,2.101-0.201
				c1.037-0.016,2.075,0.086,3.096,0.266c3.675,0.646,7.018,2.402,10.295,4.106c0.816,0.424,1.633,0.848,2.459,1.254
				c0.645,0.317,1.555,0.807,2.24,0.33c0.456-0.317,0.694-0.893,0.976-1.352c0.294-0.479,0.661-0.964,1.206-1.145
				c0.028-0.043,0.058-0.087,0.084-0.131c0.217-0.349,0.433-0.698,0.65-1.048c0.433-0.698,0.867-1.397,1.3-2.095
				c0.443-0.715,0.892-1.426,1.341-2.137c0.22-0.348,0.448-0.69,0.681-1.03c0.078-0.114,0.166-0.219,0.251-0.325
				c0.828-1.712,1.722-3.394,2.587-5.088c0.935-1.832,1.859-3.67,2.769-5.515c1.819-3.688,3.594-7.4,5.289-11.147
				c1.684-3.723,3.296-7.479,4.804-11.277c1.507-3.797,2.912-7.635,4.19-11.515c0.642-1.949,1.252-3.909,1.827-5.879
				c0.279-0.956,0.691-1.982,0.685-2.989c-0.002-0.334-0.094-0.717-0.277-1.029C305.47,361.526,305.375,361.516,305.276,361.454z"/>
			<path style="fill:#020B2A;" d="M304.344,341.615c-0.879-1.542-1.882-3.07-2.532-4.723c-0.009-0.022-0.011-0.044-0.011-0.065
				c-0.198-0.047-0.396-0.097-0.59-0.139c-1.483-0.322-3.054-0.154-4.548,0.003c-2.634,0.277-5.241,0.815-7.778,1.576
				c-5.112,1.534-9.95,4.011-14.182,7.264c-0.62,0.476-1.218,0.976-1.805,1.487c0.157,0.161,0.232,0.379,0.314,0.586
				c0.083,0.208,0.167,0.417,0.247,0.626c0.159,0.419,0.314,0.84,0.471,1.259c0.32,0.857,0.637,1.715,0.951,2.574
				c0.576,1.578,1.173,3.15,1.73,4.735c0.136,0.027,0.248,0.127,0.256,0.28c0.382-0.177,0.786-0.323,1.209-0.443
				c1.31-0.371,2.65-0.646,3.996-0.845c2.718-0.402,5.477-0.487,8.215-0.242c4.909,0.438,9.719,1.892,14.019,4.301
				c0.358-1.577,0.88-3.109,1.381-4.646c0.491-1.507,0.971-3.04,1.173-4.617c0.199-1.551,0.097-3.095-0.389-4.585
				C305.965,344.45,305.147,343.024,304.344,341.615z"/>
			<path style="fill:#020B2A;" d="M249.964,348.631c0.624,1.296,1.413,2.507,2.27,3.66c0.843,1.134,1.753,2.22,2.667,3.297
				c0.771,0.909,1.684,1.939,2.944,2.078c1.328,0.147,2.698-0.548,3.807-1.205c1.089-0.644,2.073-1.442,2.994-2.306
				c1.891-1.774,3.517-3.803,5.349-5.634c1.859-1.859,3.89-3.549,6.05-5.049c4.291-2.98,9.119-5.191,14.175-6.506
				c2.558-0.665,5.182-1.102,7.819-1.287c0.758-0.053,1.521-0.081,2.279-0.015c0.416,0.036,0.83,0.098,1.237,0.191
				c0.355,0.081,0.709,0.194,1.073,0.231c0.425,0.042,1.213-0.069,1.251-0.64c0.019-0.286-0.211-0.575-0.297-0.837
				c-0.1-0.304-0.076-0.579,0.051-0.868c0.022-0.051,0.059-0.091,0.102-0.124c-0.808-3.811-2.983-7.132-4.499-10.674
				c-0.862-2.014-1.545-4.099-2.379-6.125c-0.754-1.833-1.626-3.619-2.577-5.358c-1.931-3.528-4.204-6.859-6.638-10.057
				c-1.209-1.588-2.462-3.142-3.732-4.681c-1.288-1.561-2.659-3.067-3.848-4.707c-1.167-1.61-2.079-3.417-2.284-5.419
				c-0.099-0.974-0.004-1.971,0.32-2.897c0.167-0.476,0.389-0.953,0.388-1.467c-0.001-0.29-0.077-0.578-0.205-0.84
				c-0.277,0.869-0.763,1.672-1.435,2.286c-1.277,1.166-3.014,1.629-4.664,1.979c-3.674,0.779-7.462,0.819-11.186,0.421
				c-7.63-0.814-14.892-3.376-22.327-5.124c-3.738-0.878-7.54-1.548-11.387-1.641c-3.83-0.093-7.649,0.38-11.387,1.188
				c-1.862,0.403-3.705,0.887-5.532,1.425c-0.927,0.273-1.845,0.575-2.769,0.857c-0.706,0.215-1.464,0.384-2.202,0.257
				c-0.516-0.088-0.895-0.318-1.179-0.631c-0.266,0.315-0.351,0.817-0.38,1.215c-0.077,1.048,0.003,2.124,0.01,3.174
				c0.008,1.174,0.016,2.347,0.023,3.521c0.015,2.327,0.031,4.654,0.046,6.98c0.031,4.674,0.041,9.348,0.058,14.022
				c0.004,1.139,0.044,2.285-0.013,3.422c-0.027,0.535-0.084,1.073-0.203,1.596c-0.116,0.509-0.339,0.977-0.483,1.476
				c-0.293,1.014,0.361,1.896,0.713,2.805c0.375,0.969,0.472,2.035,0.397,3.067c-0.078,1.07-0.314,2.121-0.59,3.155
				c-0.246,0.92-0.65,1.886-0.68,2.846c-0.014,0.437,0.081,0.859,0.425,1.155c0.351,0.302,0.833,0.487,1.256,0.661
				c0.953,0.392,1.951,0.666,2.957,0.882c2.02,0.434,4.081,0.631,6.105,1.044c1.921,0.392,3.768,1.035,5.557,1.831
				c3.523,1.568,6.761,3.685,10.16,5.491c1.206,0.641,2.438,1.244,3.703,1.763c0.119-0.003,0.239,0.047,0.33,0.135
				c0.415,0.164,0.834,0.321,1.257,0.464c0.698,0.235,1.581,0.478,2.298,0.18c0.833-0.347,0.837-1.482,1.215-2.184
				c0.463-0.859,1.233-1.496,1.951-2.133c0.718-0.637,1.43-1.282,2.134-1.936c1.402-1.303,2.772-2.642,4.091-4.029
				c2.628-2.762,5.065-5.72,7.1-8.949c2.01-3.191,3.607-6.638,4.562-10.293c0.144-0.551,0.996-0.316,0.852,0.235
				c-0.241,0.921-0.517,1.831-0.835,2.728c-1.297,3.661-3.201,7.079-5.466,10.227c-2.157,2.999-4.622,5.763-7.24,8.365
				c0.316,0.515,0.591,1.047,0.829,1.604c1.077,2.514,1.551,5.218,2.254,7.848C248.956,346.093,249.371,347.401,249.964,348.631z"/>
			<path style="fill:#020B2A;" d="M159.25,209.122c0.361,0.496,0.955,0.808,1.509,1.039c0.684,0.286,1.408,0.447,2.12,0.644
				c1.727,0.479,3.408,1.125,5.036,1.872c3.29,1.508,6.347,3.471,9.26,5.608c1.459,1.07,2.873,2.197,4.294,3.316
				c0.085,0.067,0.173,0.135,0.264,0.203c0.069,0.029,0.129,0.074,0.178,0.131c0.533,0.381,1.145,0.716,1.796,0.649
				c0.84-0.086,1.517-0.829,2.109-1.361c2.699-2.424,5.206-5.063,7.49-7.881c1.134-1.398,2.21-2.843,3.229-4.327
				c0.506-0.738,0.998-1.485,1.476-2.242c0.486-0.771,0.935-1.565,1.443-2.322c0.296-0.441,0.941-0.06,0.708,0.414
				c-0.209,0.426-0.442,0.832-0.687,1.238c-1.937,3.208-4.138,6.256-6.565,9.111c-1.212,1.425-2.481,2.802-3.805,4.124
				c-0.294,0.294-0.6,0.574-0.899,0.863c0.445,1.224,1.059,2.333,1.84,3.38c0.853,1.143,1.808,2.213,2.728,3.302
				c1.781,2.109,3.554,4.226,5.327,6.342c1.731,2.066,3.504,4.103,5.173,6.22c1.552,1.969,2.931,4.055,3.803,6.419
				c0.858,2.326,1.308,4.931,1.092,7.411c-0.023,0.266-0.232,0.405-0.439,0.415c0.328,3.656,0.138,7.375-0.381,11.004
				c-0.258,1.805-0.608,3.598-1.049,5.367c-0.451,1.813-1.037,3.591-1.466,5.409c-0.4,1.694-0.725,3.553-0.427,5.291
				c0.041,0.238,0.109,0.458,0.205,0.656c0.249,0.025,0.394,0.275,0.352,0.473c0.193,0.165,0.44,0.273,0.754,0.298
				c0.769,0.062,1.531-0.23,2.25-0.46c3.536-1.125,7.134-2.085,10.801-2.676c3.65-0.589,7.346-0.803,11.034-0.49
				c3.679,0.312,7.305,1.068,10.881,1.967c7.203,1.812,14.321,4.231,21.773,4.791c3.619,0.272,7.33,0.117,10.844-0.849
				c1.498-0.412,2.963-1.083,3.757-2.489c0.666-1.178,0.828-2.792,0.302-4.058c-0.058-0.14-0.023-0.251,0.052-0.331
				c-0.017-0.111-0.035-0.221-0.051-0.332c-0.863-5.976-1.767-11.945-2.761-17.901c-0.995-5.959-2.091-11.901-3.287-17.822
				c-1.191-5.893-2.482-11.767-3.872-17.616c-1.371-5.77-2.724-11.581-4.784-17.151c-0.981-2.652-2.116-5.246-3.394-7.768
				c-1.262-2.49-2.695-4.871-4.17-7.239c-0.291-0.467,0.425-0.869,0.729-0.426c0.392,0.569,0.767,1.147,1.13,1.735
				c1.905,3.083,3.581,6.307,5.021,9.633c0.003,0,0.005-0.002,0.008-0.002c0.576-0.01,1.15-0.054,1.718-0.148
				c1.093-0.182,2.198-0.499,3.187-1.005c0.42-0.215,0.836-0.478,1.122-0.861c0.305-0.408,0.426-0.927,0.489-1.424
				c0.153-1.21,0.19-2.445,0.264-3.663c0.077-1.264,0.143-2.528,0.198-3.793c0.108-2.493,0.173-4.987,0.195-7.482
				c0.021-2.431,0.074-4.885-0.155-7.308c-0.109-1.148-0.303-2.29-0.631-3.397c-0.271-0.915-0.584-1.97-1.619-2.233
				c-0.548-0.139-1.135-0.147-1.696-0.188c-0.627-0.045-1.254-0.081-1.881-0.111c-1.256-0.059-2.512-0.09-3.769-0.108
				c-4.988-0.071-9.99,0.066-14.959-0.471c-2.459-0.266-4.898-0.68-7.339-1.071c-2.331-0.374-4.671-0.716-6.989-1.168
				c-0.122,0.013-0.244,0.031-0.367,0.04c0.031,0.443,0.061,0.885,0.092,1.328c0.07,1.011,0.14,2.023,0.21,3.034
				c0.034,0.497,0.069,0.993,0.103,1.489c0.031,0.44,0.131,0.951-0.079,1.363c-0.191,0.374-0.585,0.548-0.978,0.624
				c-0.494,0.095-1,0.148-1.503,0.174c-0.994,0.051-1.99-0.021-2.976-0.151c-3.333-0.441-6.676-1.293-9.798-2.541
				c-2.999-1.198-5.85-2.824-8.199-5.061c-0.577-0.55-1.121-1.135-1.624-1.754c-0.426-0.523-0.841-1.054-0.972-1.687
				c-0.037,0.012-0.07,0.028-0.114,0.031c-0.561,0.04-1.12,0.094-1.677,0.172c-4.438,0.617-8.575,2.421-12.155,5.095
				c-3.499,2.614-6.442,5.89-9.366,9.111c-2.974,3.276-5.944,6.564-8.676,10.047c-2.719,3.466-5.195,7.147-7.122,11.117
				c-0.87,1.792-1.529,3.741-2.752,5.337c-0.288,0.376-0.601,0.733-0.958,1.046c-0.369,0.324-0.778,0.581-1.185,0.852
				c-0.322,0.215-0.728,0.489-0.784,0.905c-0.012,0.087-0.009,0.18,0.007,0.269C159.246,209.116,159.248,209.119,159.25,209.122z"/>
			<path style="fill:#020B2A;" d="M318.895,162.555c-0.333-0.342-0.682-0.669-1.047-0.977c-0.373-0.315-0.764-0.648-1.208-0.858
				c-0.472-0.222-0.992-0.17-1.493-0.103c-0.581,0.077-1.161,0.165-1.741,0.255c-2.354,0.365-4.696,0.808-7.027,1.298
				c-4.57,0.962-9.112,2.079-13.638,3.229c-2.122,0.539-4.237,1.122-6.292,1.885c-2.065,0.766-3.978,1.764-5.844,2.928
				c-0.942,0.588-1.895,1.151-2.918,1.587c-0.964,0.41-1.962,0.73-2.988,0.943c-1.85,0.383-3.765,0.444-5.626,0.123
				c0.295,0.839,0.482,1.725,0.622,2.592c0.194,1.207,0.284,2.427,0.324,3.647c0.082,2.539,0.044,5.086-0.007,7.625
				c-0.052,2.588-0.15,5.174-0.294,7.759c-0.058,1.033-0.129,2.065-0.201,3.097c0.577-0.061,1.152-0.079,1.727-0.177
				c0.579-0.099,1.149-0.244,1.707-0.429c2.071-0.689,3.924-1.89,5.706-3.123c0.901-0.623,1.792-1.263,2.712-1.858
				c0.465-0.301,0.937-0.593,1.419-0.867c0.473-0.269,0.969-0.538,1.518-0.598c0.11-0.012,0.192,0.044,0.242,0.126
				c0.639-0.23,1.281-0.456,1.914-0.692c1.494-0.557,2.989-1.11,4.477-1.681c5.309-2.035,10.567-4.204,15.766-6.506
				c2.556-1.131,5.109-2.277,7.62-3.505c1.238-0.605,2.463-1.236,3.664-1.91c1.169-0.657,2.276-1.415,3.436-2.083
				c0.305-0.266,0.576-0.566,0.793-0.911c1.15-1.836,0.521-4.173-0.221-6.044C321.296,165.555,320.223,163.921,318.895,162.555z"/>
			<path style="fill:#020B2A;" d="M372.769,145.756c-0.307-0.408-0.971-0.179-1.361-0.068c-0.59,0.169-1.18,0.339-1.768,0.513
				c-1.176,0.349-2.348,0.716-3.514,1.099c-2.361,0.777-4.686,1.674-7.067,2.386c-0.244,0.073-0.403-0.297-0.174-0.413
				c2.64-1.34,5.494-2.29,8.303-3.208c0.774-0.253,1.551-0.497,2.329-0.735c0.273-0.218,0.586-0.388,0.883-0.572
				c0.338-0.209,0.676-0.418,1.013-0.628c0.322-0.199,0.696-0.379,0.98-0.631c0.184-0.163,0.256-0.343,0.144-0.573
				c-0.278-0.569-0.962-0.521-1.469-0.35c-0.644,0.218-1.246,0.593-1.857,0.889c-1.28,0.621-2.584,1.189-3.908,1.708
				c-2.651,1.042-5.373,1.881-8.169,2.429c-0.32,0.063-0.457-0.406-0.136-0.493c1.706-0.464,3.405-0.975,5.076-1.553
				c1.477-0.511,2.936-1.07,4.368-1.698c0.73-0.321,1.454-0.655,2.172-1.005c0.68-0.331,1.343-0.719,2.045-1.002
				c0.061-0.025,0.125-0.046,0.188-0.067c-0.005-0.03-0.007-0.06-0.004-0.092c0.054-0.491-0.352-0.838-0.803-0.946
				c-0.574-0.137-1.202,0.14-1.714,0.372c-4.51,2.043-9.209,3.715-14.015,4.917c-0.326,0.081-0.439-0.379-0.136-0.493
				c1.407-0.534,2.831-1.007,4.253-1.497c2.53-0.87,5.055-1.765,7.513-2.824c0.619-0.267,1.231-0.548,1.842-0.831
				c0.343-0.159,0.692-0.305,1.052-0.411c-0.066-0.311-0.37-0.514-0.676-0.595c-0.465-0.123-0.985,0.079-1.407,0.263
				c-1.044,0.456-2.075,0.918-3.152,1.294c-1.891,0.659-3.833,1.151-5.776,1.63c-2.033,0.501-4.055,1.033-6.071,1.6
				c-1.906,0.535-3.957,0.92-5.548,2.165c-1.178,0.921-2.19,2.043-3.3,3.046c-0.022,0.063-0.056,0.126-0.121,0.182
				c-1.556,1.351-3.203,2.641-5.064,3.548c-1.762,0.859-3.656,1.217-5.55,1.66c-1.944,0.455-3.872,0.981-5.777,1.578
				c-1.921,0.602-3.794,1.317-5.682,2.013c-0.457,0.169-0.925,0.322-1.406,0.403c-0.482,0.081-0.959,0.078-1.445,0.083
				c-0.605,0.006-1.584,0.149-1.761,0.833c0.118,0.008,0.235,0.018,0.353,0.042c0.513,0.103,0.964,0.391,1.375,0.703
				c0.399,0.304,0.785,0.624,1.152,0.965c0.74,0.687,1.405,1.449,1.998,2.265c1.171,1.609,2.044,3.465,2.502,5.403
				c0.27,1.143,0.384,2.36,0.061,3.505c-0.135,0.479-0.346,0.936-0.62,1.351c0.743,0.132,1.524-0.132,1.957-0.778
				c0.272-0.406,0.545-0.782,1.002-0.996c0.489-0.229,1.01-0.401,1.511-0.6c3.65-1.452,7.236-3.04,10.728-4.842
				c3.504-1.809,6.915-3.803,10.215-5.962c0.147-0.096,0.287-0.084,0.402-0.021c0.933-0.347,1.889-0.633,2.835-0.938
				c1.141-0.367,2.286-0.718,3.43-1.076c1.955-0.613,3.911-1.227,5.822-1.968c0.933-0.362,1.854-0.754,2.755-1.189
				c0.468-0.226,0.93-0.463,1.386-0.712c0.372-0.204,0.778-0.406,1.052-0.741c0.195-0.238,0.34-0.632,0.167-0.921
				c-0.194-0.323-0.712-0.263-1.025-0.219c-1.017,0.141-2.03,0.355-3.031,0.579c-2.058,0.459-4.091,1.056-6.076,1.765
				c-0.355,0.127-0.566-0.217-0.505-0.507c-0.072-0.179-0.051-0.402,0.149-0.542c2.114-1.472,4.377-2.718,6.767-3.683
				c1.06-0.428,2.143-0.797,3.245-1.1c0.939-0.258,1.89-0.471,2.826-0.742c0.9-0.261,1.79-0.574,2.596-1.061
				c0.399-0.241,0.768-0.52,1.098-0.851C372.444,146.594,373.02,146.089,372.769,145.756z"/>
		</g>
		<g>
			<path style="fill:#020B2A;" d="M338.015,413.757c0.042-0.688,0.13-1.39,0.12-2.082c0.666-0.015,1.246-0.599,1.742-0.975
				c0.671-0.508,1.339-1.019,2.008-1.53c1.351-1.031,2.702-2.062,4.049-3.098c0.609-0.468,1.283-0.906,1.818-1.461
				c0.161-0.167,0.292-0.347,0.404-0.534c0.226,0.118,0.448,0.235,0.692,0.329c0.294,0.112,0.59,0.216,0.886,0.322
				c0.607,0.217,1.212,0.44,1.815,0.669c1.115,0.423,2.226,0.861,3.312,1.355c-0.173,1.996-0.266,4.001-0.309,6.004
				c-0.022,1.043-0.031,2.086-0.012,3.13c0.009,0.522,0.018,1.044,0.043,1.565c0.013,0.269,0.023,0.539,0.042,0.808
				c0.013,0.18,0.043,0.341,0.081,0.503c-0.274,0.144-0.515,0.418-0.739,0.608c-0.297,0.253-0.596,0.505-0.895,0.756
				c-0.611,0.512-1.227,1.019-1.848,1.518c-1.065,0.857-2.161,1.679-3.206,2.559c-0.316-0.194-0.724-0.307-1.049-0.438
				c-0.439-0.177-0.878-0.354-1.316-0.53c-0.878-0.354-1.755-0.708-2.632-1.061c-0.877-0.354-1.755-0.705-2.634-1.055
				c-0.82-0.326-1.636-0.683-2.475-0.96c-0.035-1.364-0.04-2.729-0.001-4.093C337.933,415.295,337.968,414.525,338.015,413.757z"/>
			<path style="fill:#020B2A;" d="M351.715,422.243c0.612-0.485,1.22-0.977,1.823-1.474c0.301-0.249,0.601-0.499,0.9-0.751
				c0.157-0.133,0.347-0.266,0.516-0.416c0.192,0.234,0.547,0.362,0.801,0.486c0.383,0.187,0.768,0.368,1.157,0.543
				c0.778,0.35,1.565,0.678,2.362,0.982c1.592,0.608,3.216,1.133,4.864,1.572c0.473,0.126,0.947,0.245,1.424,0.356
				c0.415,0.097,0.845,0.216,1.272,0.269c-0.02,0.298,0.035,0.602,0.079,0.896c0.05,0.334,0.109,0.668,0.164,1.001
				c0.112,0.684,0.224,1.369,0.336,2.053c0.219,1.338,0.462,2.672,0.695,4.007c-1.12,0.296-1.973,1.248-2.829,1.992
				c-1.092,0.949-2.186,1.895-3.276,2.847c-0.608,0.531-1.215,1.064-1.822,1.596c-0.502,0.44-1.025,0.873-1.483,1.362
				c-0.172-0.111-0.39-0.151-0.585-0.206c-0.187-0.052-0.373-0.106-0.559-0.16c-0.388-0.113-0.775-0.23-1.16-0.352
				c-0.786-0.247-1.568-0.51-2.343-0.79c-0.76-0.274-1.515-0.562-2.265-0.863c-0.39-0.156-0.776-0.32-1.166-0.478
				c-0.166-0.067-0.363-0.172-0.563-0.247c0.008-0.098-0.02-0.198-0.083-0.269c-0.361-1.915-0.665-3.84-0.905-5.774
				c-0.122-0.984-0.23-1.971-0.329-2.958c-0.049-0.494-0.093-0.988-0.137-1.482c-0.039-0.434-0.047-0.885-0.165-1.307
				C349.573,423.933,350.649,423.087,351.715,422.243z"/>
			<path style="fill:#020B2A;" d="M355.238,418.789c0.03-0.164,0.054-0.326,0.056-0.506c0.003-0.269,0-0.538,0.001-0.806
				c0.002-0.504-0.004-1.009-0.002-1.513c0.004-1.06,0.014-2.12,0.042-3.179c0.053-2.041,0.182-4.076,0.339-6.111
				c0.396-0.088,0.79-0.259,1.167-0.387c0.464-0.158,0.928-0.313,1.394-0.465c0.901-0.294,1.807-0.569,2.711-0.851
				c1.802-0.56,3.619-1.072,5.444-1.548c0.167,0.231,0.365,0.442,0.548,0.658c0.277,0.326,0.551,0.655,0.821,0.987
				c0.521,0.641,1.027,1.293,1.519,1.956c0.992,1.337,1.922,2.721,2.797,4.137c0.469,0.76,0.918,1.533,1.351,2.314
				c-1.005,1.683-2.049,3.342-3.132,4.977c-0.56,0.846-1.131,1.685-1.712,2.516c-0.487,0.696-1.014,1.381-1.461,2.108
				c-0.38-0.126-0.791-0.182-1.181-0.271c-0.415-0.095-0.83-0.194-1.243-0.299c-0.811-0.206-1.616-0.433-2.415-0.68
				c-1.598-0.495-3.169-1.074-4.712-1.721c-0.422-0.177-0.841-0.36-1.259-0.545c-0.216-0.096-0.43-0.196-0.647-0.289
				c-0.111-0.047-0.23-0.102-0.351-0.132c0.001-0.002,0.003-0.005,0.004-0.007C355.37,419.005,355.326,418.877,355.238,418.789z"/>
			<path style="fill:#020B2A;" d="M368.152,427.587c-0.127-0.664-0.253-1.327-0.38-1.991c-0.063-0.332-0.124-0.664-0.19-0.995
				c-0.058-0.291-0.114-0.589-0.23-0.863c0.67-0.698,1.227-1.517,1.789-2.3c0.601-0.838,1.192-1.683,1.772-2.536
				c1.127-1.658,2.204-3.351,3.242-5.066c0.806,0.361,1.64,0.652,2.481,0.926c0.981,0.32,1.973,0.612,2.975,0.859
				c0.049,0.292,0.11,0.583,0.17,0.873c0.101,0.495,0.204,0.989,0.295,1.486c0.18,0.978,0.331,1.961,0.458,2.947
				c0.256,1.989,0.388,3.993,0.401,5.998c0.002,0.277,0,0.554-0.001,0.831c0,0.091-0.006,0.19-0.008,0.289
				c-0.21,0.158-0.376,0.37-0.551,0.565c-0.193,0.215-0.384,0.432-0.574,0.649c-0.39,0.446-0.774,0.897-1.153,1.352
				c-0.369,0.443-0.733,0.889-1.092,1.34c-0.18,0.226-0.355,0.456-0.529,0.686c-0.096,0.126-0.203,0.253-0.286,0.389
				c-0.265-0.062-0.537-0.1-0.804-0.148l-1.1-0.199c-0.7-0.127-1.399-0.254-2.099-0.381c-0.733-0.133-1.466-0.266-2.199-0.399
				c-0.545-0.099-1.101-0.214-1.658-0.216c-0.001-0.019,0.005-0.035,0.001-0.055C368.641,430.28,368.408,428.931,368.152,427.587z"
				/>
			<path style="fill:#020B2A;" d="M377.441,433.991c-0.014-0.19-0.017-0.406-0.165-0.544c-0.002-0.002-0.005-0.003-0.008-0.005
				c0-0.016-0.005-0.031-0.007-0.047c0.082-0.089,0.155-0.189,0.235-0.29c0.18-0.227,0.362-0.452,0.542-0.678
				c0.361-0.452,0.723-0.902,1.092-1.346c0.361-0.435,0.728-0.864,1.1-1.29c0.19-0.218,0.381-0.434,0.573-0.65
				c0.121-0.135,0.263-0.272,0.388-0.417c0.225,0.168,0.541,0.171,0.776-0.008c-1.078,2.874-2.668,5.493-4.664,7.74
				c0.034-0.245,0.063-0.491,0.085-0.737c0.033-0.375,0.053-0.75,0.06-1.126C377.451,434.392,377.455,434.191,377.441,433.991z"/>
			<path style="fill:#020B2A;" d="M381.679,428.14c0.001-0.057,0.003-0.122,0.003-0.114c0.002-0.228,0.002-0.456-0.001-0.684
				c-0.005-0.456-0.017-0.912-0.035-1.368c-0.035-0.896-0.094-1.79-0.177-2.683c-0.168-1.815-0.428-3.618-0.796-5.403
				c-0.102-0.494-0.208-0.988-0.329-1.478c-0.085-0.344-0.175-0.69-0.293-1.025c0.022-0.064,0.023-0.129,0.009-0.192
				c0.197-0.309,0.323-0.677,0.454-1.008c0.186-0.468,0.365-0.938,0.535-1.411c0.164-0.458,0.322-0.919,0.473-1.382
				c0.068-0.206,0.133-0.413,0.199-0.621c1.279,3.141,1.934,6.592,1.801,10.195c-0.095,2.585-0.588,5.064-1.414,7.38
				C382.052,428.183,381.873,428.059,381.679,428.14z"/>
			<path style="fill:#020B2A;" d="M381.354,409.914c-0.119,0.177-0.165,0.378-0.231,0.587c-0.068,0.217-0.137,0.433-0.208,0.649
				c-0.152,0.463-0.309,0.923-0.474,1.382c-0.164,0.458-0.331,0.915-0.505,1.37c-0.122,0.319-0.293,0.655-0.381,0.997
				c-0.899-0.224-1.793-0.461-2.679-0.733c-0.878-0.269-1.741-0.579-2.618-0.849c-0.033-0.064-0.077-0.121-0.136-0.163
				c-1.623-2.92-3.507-5.685-5.632-8.264c-0.301-0.366-0.607-0.727-0.917-1.085c-0.244-0.281-0.484-0.589-0.77-0.835
				c-0.003-0.037-0.012-0.073-0.023-0.108c0.223-0.46,0.361-0.96,0.527-1.444c0.095-0.275,0.193-0.549,0.296-0.822
				c0.051-0.136,0.104-0.272,0.157-0.407c0.019-0.049,0.038-0.094,0.054-0.137c0.089,0.006,0.178,0.01,0.275-0.001
				c0.452-0.053,0.902-0.189,1.345-0.291c0.862-0.197,1.723-0.395,2.585-0.592C376.096,401.755,379.357,405.496,381.354,409.914z"/>
			<path style="fill:#020B2A;" d="M367.602,399.253c-0.168-0.089-0.303-0.25-0.434-0.384c-0.636-0.647-1.27-1.294-1.906-1.941
				c-0.321-0.327-0.643-0.652-0.965-0.977c2.404,0.546,4.671,1.441,6.747,2.628c-0.532,0.129-1.063,0.258-1.595,0.386
				c-0.416,0.101-0.831,0.21-1.249,0.302C367.995,399.314,367.795,399.355,367.602,399.253z"/>
			<path style="fill:#020B2A;" d="M363.178,395.724c0.193,0.266,0.447,0.498,0.669,0.733c0.346,0.366,0.694,0.73,1.042,1.094
				c0.658,0.687,1.29,1.419,1.986,2.067c0.105,0.097,0.214,0.175,0.326,0.242c-0.013,0.036-0.025,0.072-0.039,0.109
				c-0.055,0.146-0.109,0.292-0.161,0.439c-0.098,0.274-0.193,0.549-0.283,0.826c-0.145,0.446-0.301,0.904-0.363,1.371
				c-0.009,0.002-0.018,0.001-0.027,0.004c-1.885,0.481-3.755,1.017-5.612,1.599c-0.921,0.289-1.833,0.607-2.743,0.928
				c-0.463,0.164-0.925,0.33-1.386,0.5c-0.387,0.142-0.816,0.266-1.183,0.468c-0.081-0.018-0.169-0.015-0.249,0.011
				c-1.125-0.427-2.242-0.877-3.369-1.3c-0.588-0.22-1.178-0.435-1.77-0.645c-0.296-0.105-0.593-0.207-0.892-0.303
				c-0.258-0.083-0.509-0.129-0.767-0.175c0.142-0.329,0.236-0.682,0.312-1.052c0.381-1.868,0.768-3.734,1.142-5.604
				c3.065-1.204,6.419-1.815,9.915-1.687C360.9,395.392,362.051,395.523,363.178,395.724z"/>
			<path style="fill:#020B2A;" d="M348.945,397.389c-0.276,1.379-0.546,2.759-0.818,4.139c-0.137,0.698-0.207,1.523-0.583,2.143
				c-0.363,0.599-1.016,1.004-1.559,1.423c-1.253,0.964-2.504,1.93-3.754,2.899c-0.638,0.495-1.276,0.989-1.913,1.484
				c-0.319,0.247-0.637,0.495-0.955,0.743c-0.288,0.225-0.572,0.486-0.89,0.669c-0.561,0.323-0.914-0.034-1.271-0.453
				c-0.246-0.289-0.492-0.598-0.812-0.794C338.941,404.169,343.433,399.799,348.945,397.389z"/>
			<path style="fill:#020B2A;" d="M336.171,410.142c0.48,0.443,0.797,1.112,1.37,1.4c-0.144,0.682-0.174,1.396-0.222,2.088
				c-0.054,0.785-0.096,1.572-0.125,2.358c-0.057,1.557-0.06,3.114-0.014,4.671c0,0.017,0.008,0.029,0.01,0.045
				c-0.063,0.16-0.115,0.327-0.171,0.48c-0.114,0.309-0.227,0.618-0.336,0.928c-0.216,0.621-0.417,1.248-0.613,1.876
				c-0.191,0.612-0.375,1.227-0.55,1.843c-0.09,0.316-0.178,0.633-0.264,0.951c-0.033,0.121-0.079,0.252-0.118,0.385
				c-0.764-2.535-1.137-5.233-1.034-8.022C334.223,415.945,334.955,412.911,336.171,410.142z"/>
			<path style="fill:#020B2A;" d="M335.417,428.036c0.075,0,0.15-0.025,0.209-0.088c0.222-0.236,0.253-0.586,0.334-0.892
				c0.084-0.318,0.171-0.635,0.259-0.952c0.177-0.634,0.362-1.265,0.555-1.894c0.189-0.613,0.387-1.223,0.588-1.832
				c0.103-0.312,0.204-0.625,0.309-0.937c0.06-0.179,0.133-0.363,0.19-0.55c0.721,0.333,1.467,0.618,2.2,0.919
				c0.875,0.36,1.751,0.718,2.628,1.074c0.877,0.356,1.753,0.712,2.63,1.068c0.438,0.178,0.877,0.356,1.315,0.534l0.611,0.248
				c0.071,0.029,0.142,0.06,0.214,0.09c0.019,0.172,0.194,0.326,0.375,0.239c-0.009,0.332,0.027,0.67,0.046,0.995
				c0.029,0.495,0.066,0.989,0.106,1.483c0.082,1.008,0.185,2.013,0.307,3.016c0.233,1.919,0.53,3.83,0.882,5.731
				c-0.482,0.174-0.957,0.367-1.442,0.533c-0.667,0.228-1.338,0.445-2.016,0.638c-0.663,0.189-1.332,0.356-2.006,0.502
				c-0.337,0.073-0.675,0.141-1.014,0.205c-0.173,0.033-0.395,0.042-0.59,0.095C339.09,435.488,336.767,431.981,335.417,428.036z"/>
			<path style="fill:#020B2A;" d="M342.891,438.951c0.322-0.059,0.642-0.122,0.961-0.192c0.689-0.151,1.373-0.325,2.05-0.521
				c0.678-0.196,1.35-0.412,2.01-0.66c0.52-0.195,1.046-0.395,1.551-0.634c0.225,0.208,0.589,0.322,0.842,0.439
				c0.382,0.177,0.769,0.341,1.158,0.503c0.776,0.324,1.56,0.627,2.351,0.914c0.79,0.286,1.587,0.556,2.388,0.808
				c0.401,0.126,0.803,0.248,1.206,0.366c0.323,0.094,0.681,0.236,1.026,0.254c0.075,0.062,0.179,0.089,0.269,0.036
				c0.017-0.01,0.032-0.022,0.048-0.032c0.066,0.15,0.156,0.293,0.236,0.432c0.125,0.218,0.249,0.438,0.373,0.657
				c0.241,0.424,0.485,0.847,0.723,1.273c0.238,0.427,0.474,0.854,0.707,1.283c0.12,0.222,0.239,0.444,0.357,0.666
				c0.021,0.039,0.04,0.078,0.059,0.117c-1.085,0.105-2.187,0.146-3.305,0.105C352.172,444.554,346.967,442.393,342.891,438.951z"/>
			<path style="fill:#020B2A;" d="M362.018,444.57c-0.054-0.132-0.13-0.257-0.199-0.386c-0.119-0.222-0.239-0.444-0.36-0.665
				c-0.242-0.442-0.488-0.882-0.74-1.319c-0.252-0.436-0.505-0.873-0.77-1.302c-0.202-0.328-0.4-0.728-0.67-1.025
				c0.373-0.278,0.728-0.586,1.08-0.885c0.539-0.458,1.077-0.915,1.616-1.373c1.077-0.915,2.149-1.837,3.222-2.756
				c0.524-0.449,1.048-0.898,1.572-1.346c0.437-0.374,0.88-0.816,1.451-0.971c0.614-0.166,1.269-0.037,1.882,0.074
				c0.7,0.126,1.4,0.253,2.1,0.379c0.766,0.139,1.533,0.277,2.299,0.415l1.2,0.217c0.363,0.066,0.731,0.152,1.1,0.178
				c-0.006,0.052-0.01,0.105-0.014,0.159c-0.014,0.2-0.017,0.401-0.027,0.601c-0.019,0.376-0.052,0.751-0.097,1.125
				c-0.044,0.365-0.102,0.729-0.165,1.091c-0.024,0.137-0.082,0.39-0.066,0.603C372.64,441.238,367.606,443.842,362.018,444.57z"/>
		</g>
	</g>
</g>
</svg>
